<?xml version="1.0" encoding="iso-8859-1"?>
<!-- Generator: Adobe Illustrator 23.0.2, SVG Export Plug-In . SVG Version: 6.00 Build 0)  -->
<svg version="1.1" xmlns="http://www.w3.org/2000/svg" xmlns:xlink="http://www.w3.org/1999/xlink" x="0px" y="0px"
	 viewBox="0 0 313.035 214.08" style="enable-background:new 0 0 313.035 214.08;" xml:space="preserve">
<g id="BACKGROUND">
</g>
<g id="DESIGNED_BY_FREEPIK">
	<path style="fill:#CCE9FF;" d="M214.609,55.14c1.54,2.85-0.609,6.27-2.87,8.59c-2.26,2.32-4.96,4.96-4.58,8.18
		c0.351,2.97,3.24,5.02,4.141,7.87c0.96,3.05-0.54,6.35-2.55,8.84c-0.891,1.11-1.881,2.13-2.86,3.17c-0.48-0.96-0.74-1.99-0.62-3.06
		c0.24-2.25,2.08-4.2,1.89-6.46c-0.189-2.44-2.59-4-4.609-5.38c-2.021-1.38-4.13-3.6-3.41-5.94c0.25-0.79,0.8-1.46,1.08-2.23
		c1.02-2.77-1.5-5.48-3.76-7.36c0,0-1.24-1.42-3.07-0.86c-1.91,0.19-2.51,1.97-2.51,1.97c-1.36,2.62-2.63,6.09-0.63,8.25
		c0.569,0.6,1.329,1.01,1.859,1.64c1.58,1.88,0.49,4.74-0.84,6.8c-1.33,2.05-2.94,4.42-2.18,6.75c0.71,2.15,3.149,3.24,4.239,5.22
		c1.171,2.11,0.551,4.79-0.569,6.94c-1.11,2.14-2.681,4.06-3.51,6.33c-0.82,2.28-0.66,5.18,1.239,6.68
		c1.32,1.04,3.25,1.24,4.29,2.55c0.11,0.14,0.221,0.29,0.311,0.43h-24.11c-0.55-2.05-1.14-3.8-1.71-5.24
		c0.5-0.24,0.92-0.5,1.24-0.79c0,0-4.59-6.87-5.181-7.85c-0.47-0.79-0.25-4.4,0.131-6.5c1.79-4.52,3.609-9.52,4.189-11.43
		c0.41-1.34,0.88-3.59,1.29-5.85c0.55-2.97,1.01-5.96,1.16-6.92c0.03-0.18,0.05-0.29,0.05-0.31c-0.29-0.86-0.979-1.69-2.27-1.69
		c-0.29,0-0.62,0.04-0.98,0.15c-2.41-1.07-6.22-1.59-7.83-1.93c-0.109-0.03-0.22-0.06-0.33-0.08c-0.08-0.03-0.16-0.05-0.239-0.06
		c-0.011-0.01-0.02-0.01-0.03-0.01c0,0-1.7-3.19-0.49-7.56c0,0,0.04-0.07,0.12-0.2c0.39,0.38,0.85,0.67,1.38,0.83
		c2.18,0.67,4.63-1.04,5.48-3.82c0.85-2.77-0.23-5.56-2.421-6.22c-0.579-0.18-1.18-0.19-1.76-0.06c-0.029-2.75-1.05-5.46-4.21-7.19
		c-8.5-4.66-14.35,4.04-12.79,7.28c-0.22,2.31,0.07,5.28,1.26,9.07c1.32,4.19,3.23,5.77,5.23,5.68c0.05,0.55,0.11,1.16,0.16,1.78
		c0.01,0.19,0.03,0.39,0.04,0.58c-0.44,0.19-0.7,0.36-0.79,0.44c-0.03,0.01-0.04,0.02-0.04,0.02c-0.45,0.17-0.93,0.35-1.38,0.52
		c-0.351,0.13-0.69,0.24-0.99,0.34c-0.2,0.07-0.39,0.13-0.55,0.17c-0.13,0.04-0.25,0.07-0.351,0.09
		c-0.109,0.02-0.239,0.09-0.399,0.2c-0.66-0.12-1.3-0.41-2.08-0.58c0.11,0.32,0.25,0.64,0.399,0.93
		c-0.689,0.18-1.479,0.55-2.34,1.19c0,0-2.89,2.94-5.189,14c-1.12,5.38-3.24,13.12-3.79,14.07c-0.2,0.35-0.84,0.89-1.74,1.64
		l-5.86-22.8h-42.18l-1.25,1.17l7.021,27.3h13.439v7.7h-5.22c-0.54,0-1.021,0.22-1.37,0.57c-0.35,0.35-0.56,0.83-0.56,1.37H62.738
		v4.33h2.851v36.57h-2.851v4.34h2.851v36.569h-1.101c-8.38-1.75-16.04-4.399-22.45-8.399c-13.359-8.34-6.409-31.15-15.659-43.39
		c-7.771-10.291-18.341-17.05-23.53-29.941c-8.84-21.91,3.76-50.44,25.82-58.22c13.779-4.86,28.38-7.09,42.01-12.43
		c14.07-5.52,19.5-13.78,30.229-23.57c19.41-17.68,52.441-14.29,76.23-3.96c3.83,1.66,7.42,3.5,10.67,5.47
		c9.92,5.97,18.15,14.33,27.5,20.94c-2.36,2.99-4.65,6.97-2.68,10.16C213.199,53.46,214.078,54.18,214.609,55.14z"/>
	<g>
		<rect x="199.161" y="166.601" style="fill:#CCE9FF;" width="6.877" height="30.949"/>
		<path style="fill:#CCE9FF;" d="M143.139,107.8c-0.57,0.41-0.92,0.66-0.92,0.66v0.08c-0.73,0.03-1.57,0.09-2.34,0.19
			c-1.73,0.24-5.771,2.47-6.561,3.39h-9.59c1.86-1.12,4.84-2.84,8-4.55c4.309-2.33,7.42-4.64,8.23-5.86
			c0.84-1.28,2.859-6.18,4.659-10.87c-0.09,1.13-0.18,2.33,0.15,3.99C145.408,98.11,143.809,104.44,143.139,107.8z"/>
		<path style="fill:#CCE9FF;" d="M120.339,108.26c0,0.11,0,0.22,0.019,0.32c-0.53,0.03-1.08,0.08-1.6,0.15
			c-1.73,0.24-5.78,2.47-6.57,3.39h-1.21v-7.7h14.7C122.889,106.44,120.339,108.26,120.339,108.26z"/>
		<path style="fill:#CCE9FF;" d="M312.089,107.99c-2.88,12.24-13.061,20.56-18.261,31.64c-5.55,11.8-4.96,26.5-13.79,36.73
			c-3.88,4.49-9.229,7.46-14.729,9.71c-10.11,4.13-20.57,7.07-31.23,9.13l5.771-63.01h4.82v-6.81h-5.62
			c0.309-0.18,0.63-0.38,0.95-0.6c4.52-3.08,1.579-7.74,4.3-11.15c1.04-1.31,2.979-1.51,4.29-2.55c1.899-1.5,2.06-4.4,1.239-6.68
			c-0.819-2.27-2.39-4.19-3.51-6.33c-1.12-2.15-1.74-4.83-0.569-6.94c1.09-1.98,3.539-3.07,4.239-5.22
			c0.761-2.33-0.84-4.7-2.17-6.75c-1.34-2.06-2.42-4.92-0.85-6.8c0.53-0.63,1.29-1.04,1.859-1.64c2.011-2.16,0.73-5.63-0.63-8.25
			c0,0-0.6-1.78-2.5-1.97c-1.83-0.56-3.069,0.86-3.069,0.86c-2.271,1.88-4.79,4.59-3.771,7.36c0.29,0.77,0.84,1.44,1.08,2.23
			c0.73,2.34-1.38,4.56-3.41,5.94c-2.02,1.38-4.42,2.94-4.609,5.38c-0.181,2.26,1.649,4.21,1.89,6.46c0.13,1.17-0.18,2.3-0.76,3.33
			c-1.05-1.13-2.141-2.23-3.11-3.44c-2.01-2.49-3.51-5.79-2.55-8.84c0.899-2.85,3.79-4.9,4.14-7.87c0.38-3.22-2.319-5.86-4.58-8.18
			c-2.26-2.32-4.42-5.74-2.859-8.59c0.52-0.96,1.399-1.68,1.97-2.61c0.729-1.19,0.88-2.48,0.65-3.8
			c8.939,3.57,18.89,4.73,28.34,5.58C276.109,56.2,320.019,74.35,312.089,107.99z"/>
		<g>
			<g>
				<g>
					<path style="fill:#0B4870;" d="M248.589,111.08c-1.311,1.04-3.25,1.24-4.29,2.55c-2.721,3.41,0.22,8.07-4.3,11.15
						c-0.32,0.22-0.641,0.42-0.95,0.6c-3.75,2.22-7.16,2.11-10.32,0c-0.11-0.06-0.21-0.13-0.31-0.21
						c-0.851-0.6-1.681-1.35-2.49-2.23c-1.561-1.71-2.98-4.27-2.11-6.54c0.83-2.16,3.42-3.6,2.641-6.36
						c-0.46-1.61-2.171-2.54-2.98-4.01c-1.17-2.12-0.191-4.85,1.44-6.63c1.64-1.78,3.83-2.94,5.689-4.49
						c0.95-0.79,1.84-1.76,2.441-2.85c0.58-1.03,0.89-2.16,0.76-3.33c-0.24-2.25-2.07-4.2-1.89-6.46c0.189-2.44,2.59-4,4.609-5.38
						c2.03-1.38,4.141-3.6,3.41-5.94c-0.24-0.79-0.79-1.46-1.08-2.23c-1.02-2.77,1.5-5.48,3.771-7.36c0,0,1.239-1.42,3.069-0.86
						c1.9,0.19,2.5,1.97,2.5,1.97c1.36,2.62,2.641,6.09,0.63,8.25c-0.569,0.6-1.329,1.01-1.859,1.64c-1.57,1.88-0.49,4.74,0.85,6.8
						c1.33,2.05,2.931,4.42,2.17,6.75c-0.7,2.15-3.149,3.24-4.239,5.22c-1.171,2.11-0.551,4.79,0.569,6.94
						c1.12,2.14,2.69,4.06,3.51,6.33C250.649,106.68,250.488,109.58,248.589,111.08z"/>
					<path style="fill:#0E538C;" d="M244.824,65.225c-0.877,2.51-1.611,5.062-2.186,7.653c-0.293,1.296-0.576,2.587-0.646,3.885
						c-0.067,1.281,0.088,2.61,0.217,3.924c0.301,2.635,0.425,5.401-0.148,8.086c-0.283,1.341-0.728,2.675-1.474,3.888
						c-0.188,0.304-0.394,0.596-0.622,0.876c-0.216,0.268-0.515,0.562-0.691,0.771c-0.419,0.43-0.753,0.967-1.073,1.5
						c-1.178,2.213-1.754,4.827-1.616,7.305c0.05,0.614,0.121,1.23,0.291,1.804c0.067,0.294,0.173,0.567,0.287,0.833l0.187,0.456
						c0.07,0.17,0.143,0.338,0.201,0.507c0.458,1.367,0.685,2.784,0.647,4.208c-0.059,1.416-0.329,2.859-1.016,4.159
						c-0.323,0.656-0.793,1.246-1.31,1.77c-0.287,0.237-0.548,0.501-0.876,0.68l-0.813,0.51c-0.938,0.643-1.401,1.873-1.515,3.135
						c-0.139,1.269,0.003,2.599,0.278,3.889v0.003c0.01,0.045-0.017,0.086-0.061,0.094c-0.038,0.01-0.073-0.011-0.088-0.047
						c-0.515-1.247-0.802-2.582-0.849-3.972c-0.015-0.692,0.092-1.403,0.311-2.099c0.213-0.702,0.668-1.35,1.23-1.862l0.819-0.633
						c0.249-0.163,0.442-0.39,0.66-0.589c0.382-0.45,0.727-0.934,0.956-1.494c0.504-1.086,0.693-2.332,0.684-3.565
						c0.018-1.236-0.208-2.484-0.609-3.631l-0.35-0.89c-0.141-0.349-0.262-0.699-0.338-1.056c-0.188-0.71-0.255-1.426-0.299-2.135
						c-0.039-2.837,0.684-5.587,2.091-8.017c0.379-0.594,0.772-1.188,1.295-1.701c0.267-0.285,0.452-0.451,0.663-0.692
						c0.201-0.229,0.387-0.474,0.554-0.734c0.684-1.036,1.136-2.248,1.44-3.496c0.296-1.254,0.457-2.55,0.497-3.853
						c0.052-1.3-0.04-2.614-0.134-3.943c-0.074-1.331-0.186-2.663-0.062-4.039c0.134-1.358,0.475-2.665,0.822-3.949
						c0.679-2.58,1.519-5.118,2.497-7.595c0.016-0.039,0.062-0.06,0.104-0.044C244.82,65.141,244.837,65.185,244.824,65.225z"/>
				</g>
				<g>
					<rect x="182.349" y="118.39" style="opacity:0.7;fill:#FFBE55;" width="19.85" height="36.57"/>
					<path style="fill:#0B4870;" d="M212.629,110.04c-0.79,2.76,1.81,4.2,2.63,6.36c0.87,2.27-0.55,4.83-2.11,6.54
						c-0.91,0.99-1.84,1.81-2.8,2.44c-0.25,0.18-0.51,0.33-0.771,0.48c-2.31,1.28-4.76,1.51-7.38,0.56v-8.03h3.34
						c0-0.05,0.011-0.09,0.021-0.14c0.05-0.3,0.12-0.6,0.22-0.89c0.07-0.24,0.16-0.48,0.26-0.72v-2.58h-10.949
						c-0.09-0.14-0.2-0.29-0.311-0.43c-1.04-1.31-2.97-1.51-4.29-2.55c-1.899-1.5-2.059-4.4-1.239-6.68
						c0.829-2.27,2.399-4.19,3.51-6.33c1.12-2.15,1.74-4.83,0.569-6.94c-1.09-1.98-3.529-3.07-4.239-5.22
						c-0.761-2.33,0.85-4.7,2.18-6.75c1.33-2.06,2.42-4.92,0.84-6.8c-0.53-0.63-1.29-1.04-1.859-1.64c-2-2.16-0.73-5.63,0.63-8.25
						c0,0,0.6-1.78,2.51-1.97c1.83-0.56,3.07,0.86,3.07,0.86c2.26,1.88,4.779,4.59,3.76,7.36c-0.28,0.77-0.83,1.44-1.08,2.23
						c-0.72,2.34,1.39,4.56,3.41,5.94c2.02,1.38,4.42,2.94,4.609,5.38c0.191,2.26-1.649,4.21-1.89,6.46
						c-0.12,1.07,0.14,2.1,0.62,3.06c0.6,1.19,1.55,2.26,2.58,3.12c1.859,1.55,4.05,2.71,5.689,4.49
						c1.641,1.78,2.62,4.51,1.441,6.63C214.788,107.5,213.078,108.43,212.629,110.04z"/>
					<path style="fill:#0E538C;" d="M202.469,96.09c1.08,2.2,1.64,4.61,1.6,7.1c-0.05,0.71-0.109,1.42-0.3,2.13
						c-0.05,0.22-0.11,0.44-0.19,0.65c-0.04,0.14-0.1,0.27-0.149,0.41l-0.351,0.89c-0.399,1.15-0.63,2.39-0.609,3.63
						c-0.01,1.08,0.14,2.18,0.51,3.16h-1.53c-0.359-1.01-0.529-2.08-0.569-3.14c-0.03-1.42,0.189-2.84,0.649-4.21
						c0.061-0.17,0.13-0.33,0.2-0.5l0.19-0.46c0.119-0.27,0.22-0.54,0.29-0.83c0.02-0.07,0.04-0.15,0.06-0.22
						c0.13-0.51,0.19-1.05,0.23-1.59c0.1-1.8-0.181-3.67-0.801-5.41c-0.22-0.66-0.5-1.29-0.819-1.89c-0.32-0.53-0.65-1.07-1.07-1.5
						c-0.18-0.21-0.48-0.5-0.69-0.77c-0.229-0.28-0.439-0.57-0.619-0.88c-0.75-1.21-1.2-2.54-1.48-3.89
						c-0.57-2.68-0.45-5.45-0.15-8.08c0.131-1.32,0.29-2.65,0.221-3.93c-0.07-1.29-0.351-2.59-0.65-3.88
						c-0.57-2.59-1.31-5.15-2.18-7.66c-0.021-0.04,0-0.08,0.04-0.09c0.04-0.02,0.09,0,0.1,0.04c0.98,2.48,1.82,5.01,2.5,7.59
						c0.351,1.29,0.69,2.59,0.82,3.95c0.13,1.38,0.01,2.71-0.061,4.04c-0.09,1.33-0.18,2.64-0.13,3.95c0.04,1.3,0.2,2.59,0.49,3.85
						c0.31,1.25,0.76,2.46,1.44,3.49c0.17,0.26,0.359,0.51,0.56,0.74c0.21,0.24,0.39,0.41,0.66,0.69c0.52,0.51,0.92,1.11,1.3,1.7
						C202.149,95.47,202.319,95.78,202.469,96.09z"/>
					<path style="fill:#F2F2F2;" d="M207.129,121.14c-0.021,0.67-0.101,1.32-0.23,1.96c-0.14,0.69-0.35,1.37-0.62,2.01
						c-0.01,0.04-0.05,0.06-0.09,0.05c-0.04-0.01-0.07-0.05-0.06-0.09v-0.01c0.189-0.88,0.31-1.78,0.319-2.66
						c0.02-0.41,0-0.82-0.04-1.22c-0.08-0.95-0.359-1.87-0.89-2.55c-0.07-0.08-0.14-0.16-0.22-0.24h0.239
						c0-0.05,0.011-0.09,0.021-0.14c0.05-0.3,0.12-0.6,0.22-0.89c0.09,0.09,0.181,0.19,0.26,0.29c0.36,0.41,0.631,0.89,0.78,1.39
						C207.038,119.74,207.149,120.45,207.129,121.14z"/>
				</g>
				<path style="fill:#2A94F4;" d="M236.729,104.26c-0.13,0.22-0.29,0.44-0.46,0.64c-0.25,0.3-0.54,0.57-0.85,0.82
					c-1.41,1.18-3.221,1.97-4.051,3.6c-2.63,5.12,2.381,10.39-2.67,15.57c-0.09,0.1-0.189,0.19-0.279,0.28
					c-0.07,0.07-0.141,0.15-0.221,0.21c-5.739,5.56-11.79,5.46-18.21,0.78c-0.14-0.1-0.27-0.2-0.41-0.3
					c-0.189-0.16-0.39-0.32-0.579-0.48c-0.77-0.67-1.5-1.44-2.101-2.28c-0.16-0.23-0.31-0.46-0.45-0.7
					c-0.68-1.17-1.069-2.45-0.93-3.77c0-0.08,0.01-0.16,0.02-0.24c0-0.05,0.011-0.09,0.021-0.14c0.05-0.3,0.12-0.6,0.22-0.89
					c0.07-0.24,0.16-0.48,0.26-0.72c0.95-2.36,2.691-4.56,1.28-7.32c-0.78-1.51-2.38-2.3-3.74-3.35
					c-0.42-0.32-0.819-0.67-1.159-1.07c-0.051-0.06-0.11-0.13-0.15-0.2c-1.51-1.93-1.46-4.64-0.57-7c0.21-0.56,0.471-1.1,0.77-1.61
					c0.02-0.06,0.06-0.12,0.09-0.17c0.92-1.52,2.11-2.83,3.33-4.13c0.979-1.04,1.97-2.06,2.86-3.17c2.01-2.49,3.51-5.79,2.55-8.84
					c-0.9-2.85-3.79-4.9-4.141-7.87c-0.38-3.22,2.32-5.86,4.58-8.18c2.261-2.32,4.41-5.74,2.87-8.59
					c-0.53-0.96-1.41-1.68-1.979-2.61c-1.971-3.19,0.319-7.17,2.68-10.16c0.09-0.12,0.19-0.24,0.28-0.35c0,0,1.239-2.16,3.76-1.91
					c2.51-0.25,3.75,1.91,3.75,1.91c1.57,1.94,3.189,4.36,3.61,6.71c0.23,1.32,0.079,2.61-0.65,3.8c-0.57,0.93-1.45,1.65-1.97,2.61
					c-1.561,2.85,0.6,6.27,2.859,8.59c2.261,2.32,4.96,4.96,4.58,8.18c-0.35,2.97-3.24,5.02-4.14,7.87
					c-0.96,3.05,0.54,6.35,2.55,8.84c0.97,1.21,2.061,2.31,3.11,3.44c1.14,1.21,2.229,2.45,3.09,3.86c0.11,0.18,0.21,0.36,0.31,0.55
					c0.301,0.57,0.551,1.17,0.74,1.8C237.819,100.31,237.809,102.53,236.729,104.26z"/>
				<rect x="202.199" y="125.38" style="fill:#0E538C;" width="42.471" height="6.81"/>
				<polygon style="fill:#0E538C;" points="239.849,132.19 234.078,195.2 233.859,197.55 206.038,197.55 206.038,195.87 
					204.679,195.87 202.199,168.85 202.199,159.3 206.038,159.3 206.038,154.96 202.199,154.96 202.199,132.19 				"/>
				<path style="fill:#0E538C;" d="M217.747,124.058c-0.989-1.484,0,0-0.422-1.788c-0.2-0.896-0.247-1.844-0.142-2.801
					c0.09-0.964,0.51-1.925,1.109-2.734l0.896-1.035c0.281-0.273,0.472-0.621,0.697-0.935c0.381-0.681,0.701-1.4,0.852-2.182
					c0.371-1.541,0.291-3.207-0.039-4.801c-0.3-1.607-0.918-3.164-1.74-4.545l-0.684-1.063c-0.275-0.414-0.518-0.838-0.712-1.28
					c-0.43-0.872-0.7-1.782-0.943-2.69c-0.788-3.663-0.566-7.416,0.622-10.932c0.338-0.868,0.689-1.739,1.234-2.539
					c0.274-0.439,0.467-0.704,0.677-1.071c0.201-0.35,0.379-0.716,0.53-1.096c0.618-1.521,0.886-3.209,0.954-4.907
					c0.056-1.701-0.073-3.423-0.355-5.122c-0.276-1.697-0.741-3.376-1.205-5.073c-0.44-1.707-0.931-3.406-1.131-5.219
					c-0.183-1.797-0.078-3.578,0.034-5.331c0.208-3.52,0.636-7.028,1.262-10.491c0.01-0.059,0.063-0.096,0.121-0.085
					c0.054,0.011,0.092,0.063,0.084,0.117c-0.486,3.481-0.771,6.979-0.84,10.486c-0.043,1.754-0.071,3.505,0.17,5.203
					c0.25,1.677,0.801,3.359,1.308,5.029c1.075,3.337,1.958,6.889,1.913,10.517c-0.021,1.813-0.246,3.658-0.898,5.426
					c-0.16,0.441-0.354,0.872-0.576,1.294c-0.211,0.405-0.522,0.862-0.698,1.179c-0.432,0.668-0.718,1.452-0.999,2.223
					c-0.951,3.177-1.016,6.715-0.192,9.888c0.229,0.784,0.478,1.563,0.847,2.262c0.165,0.363,0.371,0.692,0.587,1.009l0.365,0.54
					c0.137,0.199,0.272,0.397,0.392,0.604c0.948,1.652,1.615,3.428,1.934,5.284c0.295,1.853,0.32,3.791-0.232,5.654
					c-0.246,0.935-0.701,1.82-1.236,2.632c-0.309,0.384-0.577,0.794-0.956,1.113l-0.923,0.873c-1.045,1.079-1.323,2.791-1.141,4.455
					c0.147,1.683,0.599-0.746,1.29,0.854L217.747,124.058z"/>
			</g>
			<path style="fill:#F1B99E;" d="M124.899,111.03l-3.22,0.29l-1.79,0.16c-0.23-0.07-2.53,0.21-3.8,0.64
				c-0.141,0.05-0.261,0.1-0.37,0.15c-0.71,0.32-2.07,0.55-2.92,0.5c-0.45-0.03-0.75-0.14-0.75-0.36c0-0.03,0-0.06,0.01-0.09
				c0.02-0.06,0.06-0.12,0.13-0.2c0.79-0.92,4.84-3.15,6.57-3.39c0.52-0.07,1.069-0.12,1.6-0.15c1.391-0.09,2.601-0.08,2.601-0.08
				L124.899,111.03z"/>
			<g>
				<path style="fill:#F7F7F7;" d="M150.269,68.97c0,0.01-0.02,0.12-0.05,0.31c-0.05,0.37-0.15,1.03-0.29,1.87
					c-0.141,0.88-0.32,1.96-0.521,3.11c-0.109,0.63-0.229,1.29-0.35,1.94c0,0.03-0.01,0.05-0.01,0.08c-0.2,1.1-0.42,2.2-0.63,3.19
					c-0.221,1.01-0.44,1.91-0.641,2.58c-0.479,1.54-1.75,5.09-3.16,8.78c0,0.01,0,0.01,0,0.01c-1.8,4.69-3.819,9.59-4.659,10.87
					c-0.811,1.22-3.921,3.53-8.23,5.86c-3.16,1.71-6.14,3.43-8,4.55c-0.34,0.21-0.65,0.39-0.91,0.55c0,0-0.2-0.21-0.49-0.55
					c-0.199-0.22-0.42-0.49-0.649-0.8c-0.59-0.8-1.21-1.82-1.32-2.74c-0.019-0.1-0.019-0.21-0.019-0.32c0,0,2.55-1.82,5.34-3.84
					c0.09-0.07,0.189-0.14,0.28-0.21c2.31-1.67,4.739-3.44,5.989-4.41c0.24-0.18,0.431-0.33,0.57-0.45c0.25-0.21,0.49-0.41,0.71-0.6
					c0.9-0.75,1.54-1.29,1.74-1.64c0.55-0.95,2.67-8.69,3.79-14.07c0.14-0.69,0.29-1.35,0.439-1.98c0.07-0.31,0.15-0.62,0.221-0.92
					c0.369-1.5,0.75-2.81,1.119-3.95c0.171-0.53,0.341-1.01,0.511-1.47c0.059-0.18,0.12-0.35,0.189-0.51
					c0.12-0.32,0.24-0.62,0.351-0.91c0.22-0.53,0.43-1,0.63-1.41c0.13-0.26,0.25-0.51,0.359-0.73c0.16-0.29,0.301-0.54,0.431-0.76
					c0.14-0.24,0.27-0.45,0.39-0.63c0.05-0.08,0.11-0.16,0.16-0.23c0.04-0.06,0.07-0.11,0.11-0.15c0.029-0.04,0.06-0.08,0.08-0.11
					c0.05-0.07,0.09-0.12,0.13-0.16c0.01-0.02,0.029-0.03,0.04-0.04c0.02-0.03,0.029-0.04,0.029-0.04c0.86-0.64,1.65-1.01,2.34-1.19
					c0.421-0.11,0.811-0.16,1.16-0.16c0.101,0,0.2,0,0.29,0.01C149.389,67.82,150.269,68.97,150.269,68.97z"/>
			</g>
			<g>
				<path style="fill:#0B4870;" d="M166.959,54.8c-0.851,2.78-3.301,4.49-5.48,3.82c-0.53-0.16-0.99-0.45-1.38-0.83
					c-0.021-0.01-0.04-0.03-0.061-0.06c-0.079-0.08-0.159-0.17-0.239-0.26c0-0.01,0-0.01,0-0.01c-0.15-0.17-0.28-0.36-0.38-0.57
					c-0.091-0.13-0.16-0.27-0.221-0.42c-0.02-0.04-0.04-0.09-0.06-0.14c-0.08-0.2-0.15-0.42-0.2-0.64c-0.25-1-0.23-2.15,0.12-3.3
					c0.15-0.49,0.35-0.94,0.6-1.35c0.511-0.91,1.221-1.63,2.011-2.08c0.359-0.2,0.729-0.35,1.109-0.44
					c0.58-0.13,1.181-0.12,1.76,0.06C166.729,49.24,167.809,52.03,166.959,54.8z"/>
				<g>
					<g>
						<path style="fill:#EEBEA7;" d="M170.349,114.06h-27.67c0.22-1.01,0.42-1.95,0.6-2.78c0.01-0.04,0.021-0.08,0.021-0.12
							c0.08-0.38,0.16-0.73,0.229-1.05c0.141-0.67,0.26-1.22,0.34-1.61c0.07-0.31,0.11-0.51,0.131-0.6c0-0.02,0.01-0.03,0.01-0.04
							c0-0.01,0.01-0.02,0.02-0.03c0.01-0.03,0.03-0.07,0.05-0.1c0.051-0.08,0.12-0.2,0.21-0.35v-0.01
							c0.11-0.19,0.25-0.42,0.421-0.69c1.779-2.89,6.81-10.1,12.48-10.23c1.95-0.05,3.98,0.73,5.97,2.81
							c1.021,1.05,2.03,2.44,3,4.22c0.87,1.55,1.71,3.41,2.53,5.6c0.12,0.32,0.24,0.64,0.36,0.98
							C169.559,111.49,169.988,112.82,170.349,114.06z"/>
					</g>
				</g>
				<g>
					<path style="fill:#0E538C;" d="M170.979,114.06h-28.58c0.22-1.01,0.43-1.94,0.63-2.76c0.03-0.14,0.061-0.27,0.101-0.4
						c0.069-0.31,0.149-0.6,0.22-0.87c0.15-0.6,0.3-1.11,0.43-1.53c0.07-0.23,0.15-0.43,0.221-0.6c0-0.02,0.01-0.03,0.01-0.04
						c0-0.01,0.01-0.02,0.02-0.03c0.01-0.03,0.03-0.07,0.05-0.1c0.051-0.12,0.12-0.24,0.21-0.35v-0.01
						c1.87-2.5,9.87-3.4,15.761-3.72c0.01,0,0.01,0,0.01,0c2.82-0.15,5.14-0.17,6.1-0.17c0.301,0,0.46,0,0.46,0s1.25,1.75,2.65,5.34
						C169.839,110.26,170.429,112.01,170.979,114.06z"/>
				</g>
				<g>
					<path style="fill:#FFBE55;" d="M165.328,100.18c0.591,0.98,5.181,7.85,5.181,7.85c-0.32,0.29-0.74,0.55-1.24,0.79
						c-0.18,0.09-0.37,0.18-0.58,0.26c-3,1.23-8.18,1.85-13.11,2c-2.75,0.08-5.409,0.02-7.59-0.16c-0.83-0.07-1.59-0.16-2.25-0.27
						c-0.96-0.14-1.71-0.33-2.21-0.54c-0.06-0.02-0.12-0.05-0.18-0.08c-0.32-0.16-0.49-0.34-0.481-0.54
						c0.021-0.25,0.061-0.58,0.141-0.98c0.029-0.21,0.08-0.45,0.13-0.71c0.67-3.36,2.27-9.69,1.63-12.97
						c-0.33-1.66-0.24-2.86-0.15-3.99c0,0,0,0,0-0.01c0.131-1.55,0.261-2.97-0.739-5.28c-1.721-3.97-2.551-7.36-1.721-9.62
						c0.38-1.04,1.48-2.9,2.65-4.62c0.67-0.98,1.37-1.91,1.979-2.63c0.351-0.41,0.671-0.75,0.95-0.98c0.08-0.08,0.16-0.15,0.23-0.2
						c0.16-0.11,0.29-0.18,0.399-0.2c0.101-0.02,0.221-0.05,0.351-0.09c0.16-0.04,0.35-0.1,0.55-0.17c0.3-0.1,0.64-0.21,0.99-0.34
						c0.45-0.17,0.93-0.35,1.38-0.52c0,0,0.01-0.01,0.04-0.02c0.28-0.11,0.559-0.22,0.8-0.32c0.74-0.29,1.27-0.51,1.27-0.51
						c1.76-0.26,4.1-0.22,5.6-0.01c0.15,0.02,0.29,0.05,0.439,0.07c0.271,0.05,0.5,0.1,0.681,0.16c0.01,0,0.02,0,0.03,0.01
						c0.079,0.01,0.159,0.03,0.239,0.06c0.11,0.02,0.221,0.05,0.33,0.08c1.61,0.34,5.42,0.86,7.83,1.93
						c0.5,0.23,0.94,0.47,1.29,0.74c2.66,2.07-0.29,11.04-0.29,11.04s-3.59,11.69-4.13,13.06c-0.11,0.27-0.21,0.69-0.31,1.21
						C165.078,95.78,164.859,99.39,165.328,100.18z"/>
				</g>
				<g>
					<path style="fill:#EEBEA7;" d="M160.469,65.55c-4.181,7.98-7.851,4.3-7.851,4.3c0.061-0.86-0.019-2.44-0.14-4.01
						c0-0.04,0-0.08-0.01-0.12c-0.01-0.19-0.03-0.39-0.04-0.58c-0.05-0.62-0.11-1.23-0.16-1.78c-0.12-1.22-0.21-2.11-0.21-2.11
						s4.99-4.26,7.14-4.78c0.011,0,0.02,0,0.03-0.01c0.16-0.04,0.3-0.05,0.42-0.03c0.46,0.02,0.65,0.4,0.39,1.3
						c0,0.01,0,0.03-0.01,0.05c-0.02,0.07-0.04,0.14-0.05,0.2v0.01C158.769,62.36,160.469,65.55,160.469,65.55z"/>
				</g>
				<g>
					<g>
						<g>
							<path style="fill:#EEBEA7;" d="M161.669,48.96c-0.051,2.37-0.83,5.06-2.021,7.47c-0.06,0.14-0.13,0.27-0.189,0.39
								c-0.02,0.03-0.03,0.05-0.04,0.07c-0.45,0.86-0.95,1.67-1.48,2.41c-0.09,0.12-0.18,0.24-0.27,0.35
								c-1.19,1.59-2.561,2.82-3.94,3.37c-0.05,0.02-0.11,0.05-0.16,0.07c-0.109,0.05-0.22,0.08-0.319,0.11
								c-0.32,0.09-0.65,0.15-0.961,0.16c-0.01,0-0.02,0-0.02,0c-2,0.09-3.91-1.49-5.23-5.68c-1.189-3.79-1.479-6.76-1.26-9.07
								c0.601-6.33,5.03-7.72,5.03-7.72s9.59-2.17,10.77,6.49C161.649,47.88,161.679,48.41,161.669,48.96z"/>
						</g>
					</g>
				</g>
				<g>
					<g>
						<g>
							<path style="fill:#0B4870;" d="M162.779,48.52c0.05,4.13-2.149,8.32-2.68,9.27c-0.08,0.13-0.12,0.2-0.12,0.2v-0.01
								c-0.03-0.15-0.09-0.32-0.18-0.51c0-0.01,0-0.01,0-0.01c-0.09-0.2-0.21-0.42-0.34-0.64c-0.08-0.12-0.15-0.24-0.23-0.36
								c-0.03-0.05-0.06-0.09-0.09-0.13c-0.11-0.16-0.22-0.33-0.33-0.49c-0.68-0.97-1.44-1.88-1.62-2.1
								c-0.04-0.03-0.05-0.05-0.05-0.05c-6.84-0.5-10.94-4.51-10.94-4.51c-0.18-0.16-0.31-0.36-0.42-0.57
								c-1.56-3.24,4.29-11.94,12.79-7.28C161.729,43.06,162.749,45.77,162.779,48.52z"/>
						</g>
					</g>
				</g>
				<g>
					<g>
						<g>
							<path style="fill:#EEBEA7;" d="M157.191,53.61c0.056-1.032,0.692-3.386,2.227-2.729c1.538,0.66-0.093,5.453-1.115,5.158
								C158.302,56.04,157.068,56.058,157.191,53.61z"/>
						</g>
					</g>
				</g>
				<path style="fill:#A77860;" d="M157.939,59.3c-0.01,0.05-0.2,0.92-0.98,2.08c-0.78,1.16-2.15,2.59-4.53,3.76
					c-0.05-0.62-0.11-1.23-0.16-1.78c0,0,0.01,0,0.02,0c0.08,0.01,0.421,0.02,0.961-0.16c0.1-0.03,0.21-0.06,0.319-0.11
					c0.05-0.02,0.11-0.05,0.16-0.07c0.94-0.42,2.3-1.35,3.94-3.37C157.759,59.54,157.849,59.42,157.939,59.3z"/>
				<path style="fill:#F7F7F7;" d="M161.069,65.7l-9.01,11.41l-0.42-10.93c0,0,0.01-0.01,0.04-0.02c0.09-0.08,0.35-0.25,0.79-0.44
					c1.1-0.47,3.319-1.06,6.88-0.4c0.15,0.02,0.29,0.05,0.439,0.07c0.221,0.05,0.45,0.1,0.681,0.16c0.01,0,0.02,0,0.03,0.01
					c0.079,0.01,0.159,0.03,0.239,0.06C160.849,65.64,160.959,65.67,161.069,65.7z"/>
			</g>
			<g>
				<path style="opacity:0.9;fill:#FFBE55;" d="M206.038,114.06v2.58c-0.1,0.24-0.189,0.48-0.26,0.72c-0.1,0.29-0.17,0.59-0.22,0.89
					c-0.01,0.05-0.021,0.09-0.021,0.14h-23.189v-4.33H206.038z"/>
				<path style="fill:#0E538C;" d="M206.038,116.64v1.75h-0.5c0-0.05,0.011-0.09,0.021-0.14c0.05-0.3,0.12-0.6,0.22-0.89
					C205.849,117.12,205.939,116.88,206.038,116.64z"/>
				<rect x="62.738" y="114.06" style="fill:#FFBE55;" width="119.61" height="4.33"/>
			</g>
			<g>
				<polygon style="fill:#F2F2F2;" points="134.389,103.25 133.139,104.42 125.959,104.21 110.979,103.79 109.299,103.74 
					109.059,103.73 104.399,103.6 92.219,103.25 83.939,77.12 85.189,75.95 127.368,75.95 133.229,98.75 				"/>
				<polygon style="fill:#D3D3D3;" points="133.139,104.42 90.959,104.42 87.229,89.92 83.939,77.12 126.109,77.12 131.949,99.8 
									"/>
			</g>
			<g>
				<rect x="109.059" y="97.33" style="fill:#F2F2F2;" width="1.92" height="14.79"/>
				<path style="fill:#F7F7F7;" d="M118.129,114.06h-6.08v-1.94h4.149C117.269,112.12,118.129,112.99,118.129,114.06z"/>
				<rect x="104.399" y="97.33" style="fill:#F7F7F7;" width="4.9" height="14.79"/>
				<path style="fill:#D3D3D3;" d="M112.799,112.12v1.94h-15.55c0-0.54,0.21-1.02,0.56-1.37c0.35-0.35,0.83-0.57,1.37-0.57H112.799z
					"/>
			</g>
			<path style="opacity:0.5;fill:#FFBE55;" d="M65.589,118.39v36.57h116.76v-36.57H65.589z M166.309,143.97h-88.19v-15.28h88.19
				V143.97z"/>
			<rect x="182.349" y="154.96" style="opacity:0.9;fill:#FFBE55;" width="23.689" height="4.34"/>
			<rect x="62.738" y="154.96" style="fill:#FFBE55;" width="119.61" height="4.34"/>
			<rect x="65.589" y="159.3" style="opacity:0.5;fill:#FFBE55;" width="116.76" height="36.569"/>
			<rect x="182.349" y="195.87" style="opacity:0.9;fill:#FFBE55;" width="23.689" height="4.341"/>
			<rect x="182.349" y="159.3" style="opacity:0.7;fill:#FFBE55;" width="19.85" height="36.569"/>
			<g>
				<rect x="62.738" y="195.87" style="fill:#FFBE55;" width="119.61" height="4.341"/>
			</g>
			<path style="fill:#F1B99E;" d="M146.029,111.03l-2.649,0.24l-0.101,0.01l-0.25,0.02l-2.02,0.18c-0.23-0.07-2.53,0.21-3.8,0.64
				c-0.141,0.05-0.261,0.1-0.37,0.15c-1.12,0.51-3.9,0.8-3.65,0.05c0.02-0.06,0.061-0.12,0.13-0.2c0.79-0.92,4.83-3.15,6.561-3.39
				c0.77-0.1,1.609-0.16,2.34-0.19c0.28-0.01,0.55-0.02,0.79-0.03c0.319-0.01,0.58-0.01,0.77-0.01h0.09c0.141,0,0.21,0,0.21,0
				l1.66,2.15L146.029,111.03z"/>
			<g>
				<path style="fill:#F7F7F7;" d="M172.149,69.17c0,0.02-0.02,0.13-0.05,0.31c-0.15,0.96-0.61,3.95-1.16,6.92
					c-0.41,2.26-0.88,4.51-1.29,5.85c-0.58,1.91-2.399,6.91-4.189,11.43c-0.811,2.08-1.62,4.05-2.301,5.58
					c-0.559,1.25-1.02,2.19-1.33,2.66c-0.29,0.45-0.899,1.05-1.77,1.73c0,0,0,0-0.01,0c-0.16,0.13-0.32,0.26-0.5,0.39
					c-1.471,1.12-3.511,2.42-5.941,3.73c-2.03,1.1-3.99,2.2-5.62,3.15c-0.76,0.44-1.45,0.84-2.04,1.2
					c-0.489,0.29-0.91,0.54-1.26,0.76c0,0-0.29-0.3-0.66-0.76c-0.21-0.24-0.43-0.53-0.649-0.85c-0.03-0.03-0.051-0.07-0.08-0.11
					c-0.061-0.08-0.12-0.17-0.17-0.26c-0.48-0.75-0.9-1.61-0.91-2.36v-0.08c0,0,0.35-0.25,0.92-0.66c0.42-0.3,0.96-0.68,1.57-1.12
					c3.18-2.28,8.42-6.07,9.689-7.13c1.271-1.07,2.2-1.81,2.45-2.24c0.08-0.14,0.2-0.44,0.34-0.86c0.58-1.67,1.58-5.29,2.46-8.89
					c0.36-1.49,0.71-2.98,0.99-4.32c2.3-11.06,5.189-14,5.189-14c1.23-0.89,2.24-1.4,3.07-1.61c0.36-0.11,0.69-0.15,0.98-0.15
					C171.169,67.48,171.859,68.31,172.149,69.17z"/>
			</g>
			<path style="fill-rule:evenodd;clip-rule:evenodd;fill:#0E538C;" d="M152.069,77.26l-1.49-5.97c-0.21-0.02-0.43-0.07-0.649-0.14
				c-1.07-0.35-2.26-1.22-3.141-2.47c-0.18-0.26-0.35-0.54-0.5-0.83c-0.149-0.29-0.289-0.61-0.399-0.93
				c0.78,0.17,1.42,0.46,2.08,0.58c0.97,0.19,2.01,0.04,3.67-1.32l0.42,10.93v0.01L152.069,77.26z"/>
			<path style="fill-rule:evenodd;clip-rule:evenodd;fill:#0E538C;" d="M152.059,77.118l9.014-11.416
				c0.802,4.396,2.641,2.364,4.617,3.335c-2.493,1.972-6.574,3.972-8.131,2.961L152.059,77.118z"/>
			
				<rect x="144.361" y="74.155" transform="matrix(0.1127 -0.9936 0.9936 0.1127 52.4572 213.8746)" style="fill:#F7F7F7;" width="3.24" height="6.821"/>
			<rect x="78.118" y="128.69" style="fill:#FFBE55;" width="88.19" height="15.28"/>
		</g>
		<rect x="116.199" y="112.12" style="fill:#F7F7F7;" width="36.07" height="1.94"/>
	</g>
</g>
</svg>
